<?xml version="1.0" encoding="utf-8"?>
<!-- Generator: Adobe Illustrator 16.0.4, SVG Export Plug-In . SVG Version: 6.00 Build 0)  -->
<!DOCTYPE svg PUBLIC "-//W3C//DTD SVG 1.1//EN" "http://www.w3.org/Graphics/SVG/1.1/DTD/svg11.dtd">
<svg version="1.1" id="Layer_1" xmlns="http://www.w3.org/2000/svg" xmlns:xlink="http://www.w3.org/1999/xlink" x="0px" y="0px"
	 width="120px" height="120px" viewBox="0 0 120 120" enable-background="new 0 0 120 120" xml:space="preserve">
<g>
	<path fill="#FFC61A" d="M120,112.25c0,4.142-3.358,7.5-7.5,7.5H7.5c-4.142,0-7.5-3.358-7.5-7.5v-82.5c0-4.142,3.358-7.5,7.5-7.5
		h105c4.142,0,7.5,3.358,7.5,7.5V112.25z"/>
	<path fill="#3D7D8F" d="M108.75,29.75h-97.5c-2.072,0-3.75,1.678-3.75,3.75v33.75c0,2.072,1.678,3.75,3.75,3.75H37.5v11.25
		c0,2.072,1.678,3.75,3.75,3.75h37.5c2.072,0,3.75-1.678,3.75-3.75V71h26.25c2.072,0,3.75-1.678,3.75-3.75V33.5
		C112.5,31.428,110.822,29.75,108.75,29.75z"/>
	<path fill="#3D7D8F" d="M112.5,59.75V33.5c0-2.072-1.678-3.75-3.75-3.75h-97.5c-2.072,0-3.75,1.678-3.75,3.75v26.25H112.5z"/>
	<path fill="#FFFFFF" d="M97.5-0.25h-75c-4.142,0-7.5,3.358-7.5,7.5V26c0-4.142,3.358-7.5,7.5-7.5h75c4.142,0,7.5,3.358,7.5,7.5
		V7.25C105,3.108,101.642-0.25,97.5-0.25z"/>
	<g opacity="0.1">
		<path d="M97.5,7.25h-75c-4.142,0-7.5,3.358-7.5,7.5v3.75c0-4.142,3.358-7.5,7.5-7.5h75c4.142,0,7.5,3.358,7.5,7.5v-3.75
			C105,10.608,101.642,7.25,97.5,7.25z"/>
		<path d="M97.5-0.25h-75c-4.142,0-7.5,3.358-7.5,7.5V11c0-4.142,3.358-7.5,7.5-7.5h75c4.142,0,7.5,3.358,7.5,7.5V7.25
			C105,3.108,101.642-0.25,97.5-0.25z"/>
		<path d="M97.5,14.75h-75c-4.142,0-7.5,3.358-7.5,7.5V26c0-4.142,3.358-7.5,7.5-7.5h75c4.142,0,7.5,3.358,7.5,7.5v-3.75
			C105,18.108,101.642,14.75,97.5,14.75z"/>
	</g>
	<path fill="#FFFFFF" d="M97.5,18.5h-75c-4.142,0-7.5,3.358-7.5,7.5v45h22.5v11.25c0,2.072,1.678,3.75,3.75,3.75h37.5
		c2.072,0,3.75-1.678,3.75-3.75V71H105V26C105,21.858,101.642,18.5,97.5,18.5z"/>
	<g opacity="0.1">
		<path d="M78.75,78.5h-37.5c-2.072,0-3.75-1.678-3.75-3.75v7.5c0,2.072,1.678,3.75,3.75,3.75h37.5c2.072,0,3.75-1.678,3.75-3.75
			v-7.5C82.5,76.822,80.822,78.5,78.75,78.5z"/>
	</g>
	<path opacity="0.1" d="M86.25,37.25c0,2.072-1.678,3.75-3.75,3.75h-45c-2.072,0-3.75-1.678-3.75-3.75l0,0
		c0-2.072,1.678-3.75,3.75-3.75h45C84.572,33.5,86.25,35.178,86.25,37.25L86.25,37.25z"/>
	<path opacity="0.1" d="M86.25,52.25c0,2.072-1.678,3.75-3.75,3.75h-45c-2.072,0-3.75-1.678-3.75-3.75l0,0
		c0-2.072,1.678-3.75,3.75-3.75h45C84.572,48.5,86.25,50.178,86.25,52.25L86.25,52.25z"/>
</g>
</svg>
